<svg width="46" height="20" viewBox="0 0 46 20" fill="none" xmlns="http://www.w3.org/2000/svg">
<path opacity="0.5" d="M22.9742 4.61818C22.9702 4.61818 22.9672 4.61818 22.9636 4.61768C23.2097 4.62886 23.2692 4.63141 22.9742 4.61818Z" fill="black"/>
<path d="M44.9492 12.4239C44.4211 12.2022 41.6518 10.7263 40.5166 10.6429C39.3813 10.5595 39.6496 10.8606 38.6268 10.2747C37.6031 9.68888 37.6031 9.68889 37.6031 9.68889C37.6031 9.68889 38.0827 8.7689 38.2889 7.52649C38.4952 6.28408 38.6884 5.60312 38.6884 5.60312C38.6884 5.60312 40.5206 4.30375 41.4743 4.84486C42.429 5.38648 42.4235 5.41089 42.9344 5.14237C43.4453 4.87385 42.9258 4.34291 42.9258 4.34291C42.9258 4.34291 43.3252 4.85554 43.5976 4.30985C43.7151 4.07388 44.0661 3.46514 43.3661 2.69366C42.4956 1.73451 43.0882 1.74977 42.6691 1.50058C42.249 1.25036 41.2418 0.621277 40.4596 0.483457C39.6607 0.342586 39.6718 0.445824 39.1282 0.310547C38.9587 0.509902 39.4318 1.03219 39.4318 1.03219C39.4318 1.03219 38.0095 0.980828 37.1456 1.4426C36.2827 1.90234 36.2928 2.00252 35.2766 2.46633C34.2603 2.93115 34.5165 2.47548 33.0943 2.9876C31.6721 3.49972 30.3245 4.80265 29.273 5.0788C27.7499 5.47852 21.8986 4.57278 22.9627 4.61702C22.2748 4.586 20.1254 4.48785 20.1254 4.48785C16.9289 4.6689 15.7634 4.9069 11.9773 8.27102C8.19129 11.6351 6.71208 12.0374 4.02297 12.0918C1.33386 12.1473 2.45146 11.4221 1.35907 11.4007C0.267191 11.3793 0.859279 11.9942 0.867853 12.4544C0.876427 12.9162 2.39599 13.409 4.1783 13.409C5.96112 13.409 8.65931 12.665 13.2256 8.94842C14.5943 7.83468 15.374 7.19339 15.7961 6.84045C15.6706 7.438 14.7613 11.6443 13.8908 12.0689C12.9532 12.5277 11.4543 13.1181 10.3816 13.9125C9.3089 14.7079 8.66032 16.9547 8.57811 17.6244C8.4954 18.2937 8.77127 18.6268 9.11372 18.8491C9.45566 19.0708 9.60292 19.3846 10.1158 19.3846C10.6287 19.3846 10.3463 18.9569 10.1703 18.7077C9.80869 18.195 9.19895 17.6509 10.1955 16.3856C11.5865 14.6183 13.3542 14.8716 15.432 13.7304C17.5094 12.5902 20.3785 9.87247 20.3785 9.87247C20.3785 9.87247 21.9233 9.54954 23.2578 10.2142C24.5927 10.8794 25.6347 11.8121 27.6314 12.1605C29.6285 12.5073 34.8408 11.2685 34.8408 11.2685C34.8408 11.2685 35.6351 12.3314 37.0372 12.398C38.4387 12.4646 39.5972 11.6809 40.2211 11.8035C40.8459 11.9255 43.2566 12.4295 43.8588 12.8013C44.4605 13.1725 44.2532 14.034 45.6467 13.409C45.8419 13.32 45.4762 12.6446 44.9492 12.4239Z" fill="black"/>
<path opacity="0.5" d="M39.1282 0.00610227L39.1267 0C39.1267 0 39.1277 0.00254235 39.1282 0.00610227Z" fill="black"/>
<path d="M20.6259 10.3832C20.2245 10.7564 18.9157 11.9515 17.5202 12.9971C17.7683 13.6028 17.961 14.1724 17.9645 14.4893C17.9756 15.394 16.5312 17.5803 16.5418 18.2648C16.5524 18.9514 16.8444 19.257 17.2151 19.6038C17.5863 19.9507 17.9277 20.3209 18.0326 19.5265C18.1375 18.7327 17.4708 19.0668 17.4688 18.5938C17.4668 18.1209 18.0694 17.091 18.5511 16.4681C19.0327 15.8461 20.2391 14.7379 20.7656 13.7463C21.0838 13.1462 21.6235 11.5554 22.0002 10.3908C21.739 10.3511 21.4959 10.3379 21.2941 10.3379C21.0047 10.3379 20.7671 10.3633 20.6259 10.3832Z" fill="black"/>
<path d="M39.2726 12.5377C38.8812 12.6639 38.4228 12.8119 37.9119 12.8902C38.3249 13.1734 38.6366 13.4404 38.6532 13.6133C38.7062 14.1489 38.8625 14.3355 38.6532 14.546C38.4444 14.7566 38.335 14.7764 38.2155 14.988C38.0954 15.1985 38.0586 15.8561 38.3693 15.9247C38.6795 15.9924 38.8948 15.8393 39.0032 15.6028C39.1112 15.3653 39.6599 13.4903 39.6523 13.0254C39.6498 12.9044 39.5348 12.7183 39.3608 12.5098C39.3316 12.5189 39.3023 12.5276 39.2726 12.5377Z" fill="black"/>
</svg>
