<svg width="41" height="36" viewBox="0 0 41 36" fill="none" xmlns="http://www.w3.org/2000/svg">
<path d="M13.6531 18.4884L16.3329 8.6563L23.1949 4.20252H24.589L31.5581 0.000488281V1.34498L25.0646 5.1267L33.3805 1.84921L36.3824 1.93349L34.3454 3.86613L25.8751 6.55511L35.632 4.79066L39.2772 4.87458L36.0607 6.21908L27.3763 7.73176L36.3824 7.56393L40.3496 8.48811L36.3824 9.74868L28.2342 9.24445L34.7741 10.5893L36.5969 12.102L34.0238 12.3541L28.8775 10.8411L33.9163 13.2783L34.7741 14.8752L29.8424 15.1274L31.129 16.0437L31.5581 17.7324L29.9495 18.4884L30.4857 19.9172L29.1991 20.5057L29.3062 21.5141H27.0009V22.6069H25.0646L25.7681 23.4471L22.8737 23.1111L25.7681 24.5392L28.02 25.8001L36.3824 26.3882L37.5619 27.5645L36.3824 28.2373L30.4857 26.8089L37.0256 28.9097L37.9906 29.8339H35.3099L30.4857 28.2373L36.2753 30.4221L37.0256 31.4312L35.3099 31.8505L26.5189 28.5737L23.8382 28.4055L25.661 30.9263L23.9457 30.5064L25.0646 31.8505L19.1211 31.4312L16.9766 30.086L16.655 28.5737L15.0463 25.1273L9.14961 22.0177L10.6562 22.0416L9.14961 20.921L11.2289 20.8092L9.79927 20.1929L11.1574 20.0247L9.94233 19.3522L11.5861 18.9601L10.228 18.0074L13.6531 18.4884Z" fill="black"/>
<path d="M13.7 16.9859L6.39964 15.1262L5.44988 13.0005L3.94995 14.5191V15.6575L8.34983 17.4795L13.3993 18.2005L13.7 16.9859Z" fill="black"/>
<path d="M20.2 32.6607L18.8235 33.4615V34.1906L19.0522 34.7366L17.9056 34.3358V33.3894L17.1598 34.2996L17.5612 35.1005L16.3 34.081L17.6764 32.6607L18.6508 32.5005L20.2 32.6607Z" fill="black"/>
<path d="M16.95 32.5005L15.961 32.9102L15.65 33.764L16.3234 34.4505L15.961 33.7689L16.95 32.5005Z" fill="black"/>
<path d="M16.95 31.8498L15.5078 32.7498L15.2235 33.2786L14.7364 33.4206L15.3357 32.3899L14.3193 32.7571L14.0555 33.8002L13.7102 33.2711L14.2995 32.1901L13.5273 32.7117L13.4465 33.5281L13.05 32.825L13.9946 31.729H15.7416L16.2803 31.2002L16.95 31.8498Z" fill="black"/>
<path d="M1.07737 19.7988L1.92951 19.1135H3.30161L3.34958 18.7327L4.76966 18.2002H9.00001L10.45 19.1517L8.17774 19.3805L10.2133 20.1502L7.98858 20.4834L10.0716 21.0541H8.17774L9.50369 22.1002H8.15511L2.90066 20.7878H1.55164L0.699951 21.1872L1.07737 19.7988ZM4.58049 19.605C4.77509 19.605 4.93257 19.478 4.93257 19.322C4.93257 19.1652 4.77463 19.0386 4.58049 19.0386C4.38545 19.0386 4.22751 19.1656 4.22751 19.322C4.22751 19.478 4.3859 19.605 4.58049 19.605Z" fill="black"/>
</svg>
