<svg width="37" height="31" viewBox="0 0 37 31" fill="none" xmlns="http://www.w3.org/2000/svg">
<path d="M19.3759 7.856C19.3759 7.856 20.9194 6.3675 22.3032 5.87133C22.3032 5.87133 19.0566 1.44716 12.1908 0C12.1908 0 9.84901 1.40581 9.42323 4.17609C9.42323 4.17609 7.61365 4.54821 7.61365 5.4992L9.79579 6.32615C9.79579 6.32615 13.9472 5.70594 14.4794 5.82998C15.0116 5.95402 14.6391 7.44253 14.1601 7.69061C14.1601 7.69061 14.3197 8.18678 14.6391 8.39352C14.6391 8.39352 13.5746 10.0888 10.807 9.17912C10.807 9.17912 12.3505 11.7427 8.46522 12.4042C8.46522 12.4042 6.22985 11.908 5.91052 9.59259C5.91052 9.59259 8.51844 9.75798 8.78456 10.0474C8.78456 10.0474 9.37001 9.71663 7.24109 9.4272C7.24109 9.4272 6.92175 9.17912 8.09266 8.39352L7.29431 8.35217L7.08142 6.61558C7.08142 6.61558 2.18491 7.48388 0.960787 10.4195C0.960787 10.4195 -1.75358 16.4976 4.26061 29.6461C4.26061 29.6461 8.25233 30.2663 10.9135 29.522C10.9135 29.522 11.0731 27.6201 10.7006 27.372L8.94423 26.5864C8.94423 26.5864 12.4037 21.8728 11.3393 21.0045C11.3393 21.0045 10.328 20.2602 10.0619 19.8054C10.0619 19.8054 11.5521 20.3843 12.1376 20.3843C12.1376 20.3843 12.8295 18.2342 14.1601 16.7043C14.1601 16.7043 10.9667 27.0412 12.2973 29.8942C12.2973 29.8942 21.2387 31.8788 20.7597 28.9432C20.7597 28.9432 20.8129 27.8681 19.4291 26.9585C19.4291 26.9585 21.8774 24.8084 21.9838 24.519C21.9838 24.519 24.0063 23.6507 22.5161 20.0948C21.0258 16.539 22.4628 20.0121 22.4628 20.0121C22.4628 20.0121 32.6284 12.7763 26.082 7.0704C26.082 7.0704 23.4741 4.67225 19.3759 7.856Z" fill="black"/>
<path d="M13.7561 6.53307H12.3423H8.59035L7.61157 6.10986C7.61157 6.10986 8.04658 7.59107 8.26409 7.69688C8.26409 7.69688 9.46037 7.74978 10.1129 7.32657C10.1129 7.32657 11.3635 8.27878 11.7442 8.33168C11.7442 8.33168 13.593 7.53817 13.7561 6.53307Z" fill="black"/>
<path d="M9.81397 7.77588L9.37105 8.48282C9.37105 8.48282 9.00195 8.88679 9.81397 8.88679H10.4045V7.97786C10.4045 7.97786 10.1093 7.77588 9.96162 7.77588" fill="black"/>
<path d="M9.28735 7.77588L8.80856 8.33133L8.17017 8.2619C8.17017 8.2619 8.64896 7.81059 9.28735 7.77588Z" fill="black"/>
<path d="M28.5695 14.4603C28.5695 14.4603 26.1901 18.3106 23.8108 19.9428L24.1809 22.3701C24.1809 22.3701 25.397 22.119 25.5028 22.2027C25.6085 22.2864 28.8867 27.3922 28.8339 27.6851C28.8339 27.6851 27.7235 28.0618 27.7235 28.3547L27.6177 29.2336C27.6177 29.2336 33.4868 29.6939 35.1788 29.2336C35.1788 29.2336 36.9765 27.6433 35.5489 24.2115C35.5489 24.2115 33.0109 21.9516 32.9581 21.1983C32.9581 21.1983 32.4822 19.9009 33.2753 18.3106C33.3282 18.2269 34.5443 14.1255 28.5695 14.4603Z" fill="black"/>
<path d="M23.9319 23.416C23.9319 23.416 23.9889 24.7436 20.4592 26.8912C20.4592 26.8912 22.0533 28.4141 21.7117 28.8827L23.3057 28.7265C23.3057 28.7265 24.3874 26.3836 24.3874 26.1493C24.3874 26.1493 23.5903 25.6417 23.4765 25.3684C23.4765 25.3684 26.323 24.1969 25.2413 23.416C24.9567 23.2988 23.9319 23.2988 23.9319 23.416Z" fill="black"/>
</svg>
