<svg width="38" height="28" viewBox="0 0 38 28" fill="none" xmlns="http://www.w3.org/2000/svg">
<path d="M34.9375 20.4969C36.4609 17.611 37.7 14.072 37.7 10.3002C37.7 8.40564 37.0959 6.25198 36.084 4.53931C35.1992 3.0417 33.5584 1.10683 30.7645 0.393469C27.2288 -0.509218 23.6465 0.332595 20.768 1.00909C19.7277 1.25354 18.7451 1.48443 17.9034 1.59862C16.016 1.85446 14.0219 1.81698 12.3077 1.75211H12.3065C12.0383 1.74193 11.7763 1.73115 11.5234 1.72071C10.4403 1.67593 7.9461 1.63297 7.9461 1.63297C7.80998 1.06614 7.49968 0.601748 7.11235 0.387382C6.94825 0.298074 6.76911 0.252803 6.58806 0.254895C6.40701 0.256987 6.22867 0.306387 6.06612 0.399469C5.53336 0.681146 5.27789 1.30703 5.39866 2.01361C4.54501 2.44286 3.71104 3.29729 3.20525 3.96917C2.77097 4.546 2.40271 5.45678 2.04644 6.33755C1.68369 7.23458 1.30865 8.16214 0.93331 8.53669C0.841431 8.62762 0.760175 8.73223 0.691626 8.84785C0.690434 8.84785 0.689242 8.84707 0.687975 8.84681C0.609489 8.82836 0.528566 8.82926 0.450397 8.84946C0.372227 8.86965 0.298536 8.9087 0.234049 8.96408C0.169562 9.01947 0.115704 9.08997 0.0759273 9.17108C0.0361508 9.25218 0.0113344 9.34209 0.00306964 9.43505C-0.00519513 9.528 0.00327415 9.62194 0.0279344 9.71085C0.0525946 9.79976 0.0929014 9.88168 0.14627 9.95134C0.199638 10.021 0.26489 10.0769 0.337841 10.1154C0.410792 10.1539 0.489831 10.1742 0.56989 10.1749C0.63766 10.4214 0.729188 10.658 0.842716 10.8804C1.59802 12.398 2.7928 13.3415 3.84693 14.1737C4.42805 14.6325 4.97683 15.066 5.40201 15.55C5.72099 15.9258 5.99845 16.3468 6.22794 16.803C6.23047 16.8088 6.23382 16.8138 6.23658 16.8194C6.66817 17.6624 7.01051 18.6908 7.07443 19.673C7.15526 20.914 7.34651 24.2647 7.40663 25.3232C7.19893 25.4003 7.0041 25.5184 6.83058 25.6723C6.70149 25.7863 6.60678 25.9452 6.56013 26.1261C6.51349 26.307 6.51733 26.5005 6.57109 26.6787C6.62213 26.8606 6.7214 27.0188 6.85453 27.1304C6.98766 27.2421 7.14777 27.3015 7.31172 27.3H10.8421C10.9558 27.3001 11.0682 27.2712 11.1713 27.2152C11.2744 27.1592 11.3658 27.0774 11.4389 26.9758C12.2197 25.8921 14.1672 23.0991 15.3997 20.565C20.171 20.5596 23.4295 20.3575 25.3303 19.9476C25.6134 22.0369 25.9873 24.4175 26.124 25.2761C26.006 25.3406 25.8944 25.4199 25.7912 25.5126C25.65 25.6397 25.5464 25.8152 25.495 26.0145C25.4435 26.2138 25.4467 26.4269 25.5042 26.624C25.5617 26.821 25.6706 26.9921 25.8156 27.1133C25.9606 27.2345 26.1344 27.2997 26.3128 27.2998H29.6218C29.8176 27.2996 30.0074 27.2211 30.1596 27.0774C31.2509 26.0441 33.2477 23.6838 34.9128 20.5441C34.922 20.5291 34.9303 20.5133 34.9375 20.4969ZM11.6176 10.5667C10.5502 13.1777 8.67138 15.2898 6.66996 16.1513C6.44016 15.7316 6.17213 15.3422 5.87055 14.9899C5.40238 14.4569 4.82946 14.0046 4.22287 13.5256C3.17984 12.7018 2.10098 11.8501 1.42271 10.4872C1.00982 9.65766 1.16404 9.33642 1.36922 9.1317C1.85393 8.64801 2.24208 7.6881 2.65311 6.67166C2.98941 5.83985 3.33719 4.97978 3.70918 4.48591C4.15932 3.88786 4.95984 3.06083 5.73451 2.69819C5.81061 2.66244 5.87903 2.60757 5.93492 2.53748C6.35839 3.25998 7.367 3.15345 7.62015 2.49556C7.63781 2.4483 7.65091 2.39889 7.65919 2.34825C8.72524 2.51009 10.4239 2.45826 11.4998 2.50296C11.6821 2.51052 11.8702 2.51817 12.0606 2.52565C12.8452 5.09744 12.6905 7.94238 11.6176 10.5667ZM32.1906 17.7354C31.5656 17.5998 28.4634 17.0522 25.8616 18.8322C25.7379 17.8505 25.6535 17.0342 25.6535 16.6352C25.6535 16.5314 25.6182 16.4319 25.5553 16.3585C25.4924 16.2851 25.4071 16.2439 25.3182 16.2439C25.2293 16.2439 25.144 16.2851 25.0812 16.3585C25.0183 16.4319 24.983 16.5314 24.983 16.6352C24.983 17.0986 25.0843 18.0535 25.2279 19.1739C23.6045 19.5279 20.9276 19.7249 17.0905 19.7717C17.8543 19.2302 18.4635 18.453 18.9083 17.4422C19.5278 16.0353 19.8016 14.2024 19.7001 12.1414C19.5858 9.8195 18.0572 6.69193 16.8289 4.17919C16.5444 3.59731 16.272 3.03996 16.0451 2.5467C16.6911 2.51583 17.3407 2.46278 17.9805 2.37599C18.8498 2.25824 19.8457 2.02413 20.9 1.77594C23.717 1.11388 27.2227 0.289896 30.6209 1.15771C35.2896 2.35016 37.0295 7.39834 37.0295 10.3002C37.0295 13.6402 36.0128 16.7965 34.7009 19.4482C34.3157 18.7759 33.513 18.0226 32.1906 17.7354Z" fill="black"/>
<path d="M4.48083 5.97713C2.92791 5.37665 2.02468 7.06308 3.01298 8.05346C3.55342 8.59475 4.06716 9.84901 5.24144 9.74498C7.10711 9.58005 6.93531 6.92523 4.48083 5.97713ZM3.77735 7.60885C3.68525 7.60885 3.59523 7.58116 3.51866 7.52927C3.44209 7.47739 3.38241 7.40364 3.34716 7.31736C3.31192 7.23108 3.3027 7.13614 3.32067 7.04454C3.33863 6.95295 3.38298 6.86881 3.4481 6.80278C3.51322 6.73674 3.59619 6.69177 3.68651 6.67355C3.77683 6.65533 3.87045 6.66468 3.95553 6.70042C4.04062 6.73616 4.11334 6.79668 4.1645 6.87433C4.21566 6.95198 4.24297 7.04327 4.24297 7.13666C4.24295 7.26189 4.19389 7.38198 4.10657 7.47052C4.01925 7.55907 3.90083 7.60883 3.77735 7.60885Z" fill="black"/>
<path d="M19.0146 20.8726C19.0105 20.8519 19.0008 20.8336 18.9872 20.8205C18.9736 20.8075 18.9568 20.8005 18.9396 20.8008C18.5721 20.8056 16.6267 20.8307 15.8019 20.8348C15.7892 20.8347 15.7767 20.8387 15.7656 20.8463C15.7546 20.854 15.7452 20.865 15.7386 20.8783C15.2084 21.9202 14.2784 23.5415 13.6642 24.5969C13.6541 24.6142 13.6491 24.6354 13.65 24.6568C13.651 24.6781 13.6578 24.6985 13.6694 24.7144L14.5277 25.9037L14.5185 25.9207C14.5155 25.9273 14.5117 25.9339 14.5086 25.9406C14.4417 26.0762 14.4051 26.2314 14.4028 26.3903C14.4005 26.5492 14.4324 26.706 14.4954 26.8445C14.5583 26.9831 14.65 27.0984 14.7609 27.1786C14.8718 27.2588 14.9981 27.3009 15.1266 27.3008H18.7763C18.8728 27.3007 18.9684 27.2768 19.0573 27.2304C19.1463 27.184 19.2268 27.116 19.2942 27.0306C19.3616 26.9451 19.4145 26.8439 19.4498 26.7327C19.4851 26.6216 19.502 26.5029 19.4997 26.3836C19.4875 25.7686 19.4554 24.8033 19.3759 23.7557C19.3102 22.7854 19.1894 21.822 19.0146 20.8726Z" fill="black"/>
<path d="M36.704 18.2575C36.699 18.241 36.6899 18.2267 36.6778 18.2164C36.6658 18.206 36.6513 18.2002 36.6363 18.1997C36.6213 18.1992 36.6066 18.204 36.594 18.2135C36.5814 18.223 36.5716 18.2367 36.5659 18.2528C36.4667 18.5339 36.3555 18.8089 36.2326 19.0769C35.205 21.3212 33.9587 23.4199 32.5183 25.3314C32.5061 25.3475 32.4994 25.3683 32.4998 25.3898C32.5001 25.4113 32.5074 25.4318 32.5201 25.4474L32.7691 25.7535C32.6959 25.8545 32.6346 25.9663 32.5866 26.086C32.535 26.2183 32.513 26.3636 32.5226 26.5085C32.5321 26.6534 32.5729 26.7931 32.6413 26.9147C32.7021 27.0303 32.7869 27.1262 32.8879 27.1935C32.9889 27.2608 33.1029 27.2973 33.2192 27.2997H36.9996C37.093 27.2997 37.1854 27.2779 37.2714 27.2356C37.3574 27.1934 37.4353 27.1315 37.5005 27.0536C37.5657 26.9758 37.6169 26.8836 37.6511 26.7823C37.6853 26.6811 37.7018 26.5729 37.6996 26.4642C37.6622 24.7137 37.4885 20.8345 36.704 18.2575Z" fill="black"/>
</svg>
